<svg width="168" height="158" viewBox="0 0 168 158" fill="none" xmlns="http://www.w3.org/2000/svg">
<path fill-rule="evenodd" clip-rule="evenodd" d="M156.506 0.385695C156.997 -0.0262394 157.681 -0.116046 158.261 0.154183C158.842 0.425236 159.213 1.00688 159.213 1.64785C159.213 9.61136 159.213 28.5818 159.213 32.6303C159.213 33.1172 158.997 33.5794 158.624 33.8924C149.253 41.7554 30.8739 141.083 11.387 157.433C10.8968 157.845 10.2121 157.935 9.63214 157.665C9.05131 157.394 8.6806 156.811 8.6806 156.171C8.6806 148.207 8.6806 129.237 8.6806 125.189C8.6806 124.702 8.89562 124.24 9.26883 123.926C18.6403 116.063 137.019 16.7362 156.506 0.385695Z" fill="#1B1C1E"/>
<path fill-rule="evenodd" clip-rule="evenodd" d="M69.9224 6.62304C70.2231 6.37176 70.6021 6.23335 70.9943 6.23335C75.0123 6.23335 97.9348 6.23335 107.86 6.23335C108.56 6.23335 109.186 6.67165 109.426 7.32992C109.666 7.98901 109.468 8.7272 108.931 9.17703C96.0168 20.0134 51.4373 57.4178 42.9729 64.5204C42.6153 64.8203 42.3994 65.2578 42.3788 65.7241C42.3591 66.1912 42.5354 66.6452 42.8657 66.9755C44.9765 69.0863 49.1494 73.2592 51.2593 75.3699C51.5905 75.7003 51.7668 76.1543 51.7462 76.6206C51.7256 77.0877 51.5106 77.5252 51.1522 77.8251C46.9447 81.3553 34.4211 91.8638 30.525 95.1329C29.8626 95.6882 28.8855 95.6462 28.275 95.0348C23.6465 90.4063 5.49753 72.2574 0.48841 67.2482C0.158039 66.9179 -0.018272 66.4639 0.00150083 65.9968C0.0220976 65.5305 0.237945 65.093 0.595504 64.7931C10.0296 56.8774 64.3325 11.3141 69.9224 6.62304Z" fill="#1B1C1E"/>
<path fill-rule="evenodd" clip-rule="evenodd" d="M98.0776 151.096C97.7769 151.347 97.3979 151.486 97.0057 151.486C92.9877 151.486 70.0652 151.486 60.1401 151.486C59.4398 151.486 58.8137 151.047 58.5739 150.389C58.3342 149.73 58.5319 148.992 59.0691 148.542C71.9832 137.706 116.563 100.301 125.027 93.1986C125.385 92.8987 125.601 92.4612 125.621 91.9949C125.641 91.5278 125.465 91.0738 125.134 90.7435C123.024 88.6327 118.851 84.4598 116.741 82.3491C116.409 82.0187 116.233 81.5647 116.254 81.0984C116.274 80.6313 116.489 80.1938 116.848 79.8939C121.055 76.3637 133.579 65.8552 137.475 62.5861C138.137 62.0308 139.114 62.0729 139.725 62.6842C144.353 67.3127 162.502 85.4617 167.512 90.4708C167.842 90.8011 168.018 91.2551 167.998 91.7222C167.978 92.1885 167.762 92.626 167.404 92.9259C157.97 100.842 103.668 146.405 98.0776 151.096Z" fill="#1B1C1E"/>
</svg>
